# xmcd CD database file
#
# Track frame offsets:
#	150
#	9055
#	25175
#	46257
#	65575
#
# Disc length: 880 seconds
#
# Revision: 0
# Processed by: cddbd v1.5.1PL0 Copyright (c) Steve Scherf et al.
# Submitted via: CDex 1.51
#
DISCID=30036e05
DTITLE=STRAWBERRY - coming all the way E.P.
DYEAR=2000
DGENRE=Rock
TTITLE0=coming all the way
TTITLE1=white of
TTITLE2=clash
TTITLE3=wahat's going on
TTITLE4=DATA TRACK
EXTD=YEAR: 2000
EXTT0=
EXTT1=
EXTT2=
EXTT3=
EXTT4=
PLAYORDER=
